<svg xmlns="http://www.w3.org/2000/svg" width="130" height="130" viewBox="0 0 130 130">
    <g transform="translate(-735 -323.5)">
        <rect width="130" height="130" fill="#f4f5f8" rx="4" transform="translate(735 323.5)"/>
        <path fill="#92a1b6" d="M10.868 75.367h63.2a8.391 8.391 0 0 0 7.26-12.59l-31.6-54.6a8.389 8.389 0 0 0-14.52 0l-31.6 54.6a8.391 8.391 0 0 0 7.26 12.59zm31.6-29.377a4.209 4.209 0 0 1-4.2-4.2V33.4a4.2 4.2 0 1 1 8.393 0v8.393a4.209 4.209 0 0 1-4.192 4.198zm4.2 16.787h-8.396v-8.393h8.393z" transform="translate(757.531 348.507)"/>
    </g>
</svg>
