<svg xmlns="http://www.w3.org/2000/svg" width="610" height="610" viewBox="0 0 610 610">
    <defs>
        <clipPath id="clip-path">
            <path id="Rectangle_865" d="M0 0H610V610H0z" class="cls-1" transform="translate(335 235)"/>
        </clipPath>
        <style>
            .cls-1{fill:none}.cls-2{opacity:.2}.cls-4,.cls-5{fill:#e0e0e0}.cls-4{fill-rule:evenodd}.cls-7{fill:#f64f64}.cls-8{fill:#fff}.cls-9{fill:#455a64}.cls-10{fill:#263238}.cls-11{fill:#fafafa}.cls-13{fill:#b78876}.cls-15{fill:#aa6550}
        </style>
    </defs>
    <g id="link_sent_art" class="cls-2" transform="translate(-335 -235)">
        <g id="Mask_Group_12" clip-path="url(#clip-path)">
            <g id="JavaScript_frameworks-pana" transform="translate(288.531 310.912)">
                <g id="freepik--background-complete--inject-4">
                    <path id="Path_1569" d="M597.75 110.183a48.277 48.277 0 0 1 10.441 7.357l11.163-3.965 10.478 16.552-8.351 8.435a47.9 47.9 0 0 1 2.184 12.587l10.7 5.08-4.293 19.12h-11.834a48.278 48.278 0 0 1-7.367 10.45l3.974 11.153-16.552 10.488-8.435-8.351a48.276 48.276 0 0 1-12.512 2.174l-5.08 10.7-19.129-4.293v-11.832a48.28 48.28 0 0 1-10.469-7.367l-11.163 3.974-10.488-16.552 8.36-8.435a48.678 48.678 0 0 1-2.193-12.587l-10.76-5.042 4.293-19.12h11.837a48.049 48.049 0 0 1 7.367-10.45l-3.974-11.153L552.5 98.617l8.435 8.351a48.277 48.277 0 0 1 12.587-2.184l5.08-10.7 19.12 4.293v11.837zm-16.87 22.494a68.838 68.838 0 1 0 .009.009z" class="cls-4" transform="translate(-86.249 148)"/>
                    <path id="Path_1570" d="M492.553 73.584a11.847 11.847 0 0 1 3.665 1.153 15.638 15.638 0 0 1 8.81 14.546 15.887 15.887 0 1 1-30.461-6.8 15.68 15.68 0 0 1 4.405-5.83 15.446 15.446 0 0 1 9.775-3.543 11.81 11.81 0 0 1 3.805.525c0 .112-1.359-.272-3.749-.178a15.427 15.427 0 0 0-9.373 3.749 15.127 15.127 0 0 0-5.192 13.543 14.059 14.059 0 0 0 1.181 4.171 14.255 14.255 0 0 0 2.437 3.815 15 15 0 0 0 17.4 3.9 15.187 15.187 0 0 0 7.77-20.142 15.512 15.512 0 0 0-6.9-7.348 28.9 28.9 0 0 0-3.573-1.561z" class="cls-5"/>
                    <path id="Path_1571" d="M505 56.975a4.735 4.735 0 0 1 0-.553v-1.65q0-2.278-.084-6.561l.112.141-14.143-3.092.253-.122-3.749 7.91-.066.15h-.159a35.775 35.775 0 0 0-9.223 1.64l-.169.056-.122-.131-6.214-6.13h.394L459.646 56.4l.141-.412c.937 2.549 1.921 5.361 2.952 8.238l.075.206-.159.169a35.081 35.081 0 0 0-5.361 7.639l-.1.206h-8.979l.394-.309c-.993 4.433-2.062 9.223-3.149 14.124l-.234-.469 7.9 3.749.234.1v.328a35.382 35.382 0 0 0 1.6 9.176l.084.253-.187.178-6.167 6.2.056-.544c2.456 3.871 5.089 8.013 7.751 12.184l-.525-.178 8.238-2.934.262-.094.2.178a34.753 34.753 0 0 0 7.6 5.361l.244.394v8.735l-.347-.441 14.124 3.177-.5.234q1.874-3.983 3.749-7.892l.122-.244h.262a34.941 34.941 0 0 0 9.176-1.593l.253-.075.187.187 6.186 6.176-.553-.019 12.184-7.723-.169.478c-.993-2.812-1.959-5.539-2.924-8.238l-.075-.234.159-.178a35.043 35.043 0 0 0 5.389-7.61l.1-.206h8.979l-.366.291c1.125-4.967 2.193-9.654 3.2-14.115l.187.384-7.879-3.737-.178-.084v-.253a35.317 35.317 0 0 0-1.575-9.213l-.056-.169.131-.131 6.186-6.176v.326l-7.685-12.25.234.075-8.257 2.887h-.084l-.066-.066a36.3 36.3 0 0 0-5.624-4.321l-1.5-.937a5.218 5.218 0 0 1-.5-.3 3.882 3.882 0 0 1 .534.234c.347.178.862.45 1.537.844a34.676 34.676 0 0 1 5.736 4.246h-.141l8.22-2.99.15-.056.084.141 7.8 12.184.112.178-.15.15q-2.812 2.812-6.148 6.223l.066-.3a35.616 35.616 0 0 1 1.659 9.372l-.178-.281 7.91 3.749.244.122-.066.262c-.937 4.471-2.034 9.157-3.13 14.124l-.066.291h-9.044l.347-.206a35.71 35.71 0 0 1-5.483 7.8l.084-.4q1.434 4.049 2.943 8.238l.1.309-.272.178-12.184 7.751-.291.178-.234-.234-6.2-6.167.431.1a35.5 35.5 0 0 1-9.372 1.64l.384-.244-3.749 7.9-.15.319-.347-.084-14.171-3.121-.347-.075v-9.091c.478.787.131.216.234.394a36.346 36.346 0 0 1-7.8-5.5l.45.094-8.267 2.934-.337.112-.187-.3-7.732-12.184-.187-.291.244-.253 6.176-6.2-.1.441a35.972 35.972 0 0 1-1.631-9.372l.234.366-7.892-3.749-.3-.141.075-.328 3.187-14.059.066-.319h9.063l-.337.206a35.691 35.691 0 0 1 5.5-7.892l-.075.375-2.924-8.276-.094-.262.244-.15 12.222-7.685.216-.131.178.178c2.184 2.165 4.293 4.3 6.167 6.176l-.3-.075a35.664 35.664 0 0 1 9.373-1.593l-.225.141c1.368-2.812 2.643-5.492 3.749-7.873l.075-.169h.178l14.059 3.252h.112v.112q0 4.218-.056 6.486v1.678a4.989 4.989 0 0 1 .038.66z" class="cls-5"/>
                    <path id="Path_1572" d="M124.964 263.3a24.65 24.65 0 0 1 4.621 4.536l5.914-1.078 3.89 9.138-4.864 3.515a24.143 24.143 0 0 1 .075 6.476l4.939 3.412-3.7 9.223-5.933-.937a24.368 24.368 0 0 1-4.527 4.63l1.078 5.9-9.138 3.9-3.515-4.864a24.153 24.153 0 0 1-6.476.066l-3.412 4.883-9.223-3.749.937-5.923A24.144 24.144 0 0 1 91 297.9l-5.9 1.078-3.9-9.138 4.864-3.515a24.153 24.153 0 0 1-.066-6.476l-4.921-3.355 3.749-9.213 5.923.937a24.144 24.144 0 0 1 4.536-4.63l-1.078-5.9 9.129-3.9 3.515 4.9a24.536 24.536 0 0 1 6.476-.066l3.412-4.939 9.213 3.7-.937 5.923zm-10.31 9.888a8.187 8.187 0 1 0 .037 0z" class="cls-1"/>
                    <path id="Path_1573" d="M114.691 273.19a8.238 8.238 0 0 1 2.362 1.181 10.6 10.6 0 0 1 4.143 5.82 10.872 10.872 0 0 1 .225 5.014 10.918 10.918 0 0 1-20 3.646 10.657 10.657 0 0 1-1.284-3.018 10.225 10.225 0 0 1-.337-3.13 10.975 10.975 0 0 1 1.734-5.492 10.769 10.769 0 0 1 10.638-4.8 8.042 8.042 0 0 1 2.521.778c0 .075-.937-.328-2.549-.544a10.6 10.6 0 0 0-6.767 1.481 10.4 10.4 0 0 0-3.421 3.355 10.572 10.572 0 0 0-1.593 5.239 10.029 10.029 0 0 0 .337 2.962 9.71 9.71 0 0 0 1.237 2.812 10.31 10.31 0 0 0 11.359 4.564 10.406 10.406 0 0 0 7.479-12.784 10.619 10.619 0 0 0-3.861-5.745 25.035 25.035 0 0 0-2.221-1.34z" class="cls-5"/>
                    <path id="Path_1574" d="M124.964 263.3a1.574 1.574 0 0 1 0-.366 9.063 9.063 0 0 1 .159-1.125c.15-1.031.366-2.521.656-4.443l.056.1-9.232-3.655.178-.056c-1.022 1.509-2.165 3.168-3.383 4.958l-.066.084h-.112a23.892 23.892 0 0 0-6.42.094h-.122l-.075-.1-3.505-4.8.253.075-9.119 3.918.141-.262c.337 1.828.712 3.833 1.087 5.9v.15l-.122.094a24.191 24.191 0 0 0-4.424 4.536l-.094.131h-.16l-5.933-.937.3-.169c-1.162 2.9-2.409 6.026-3.693 9.223l-.1-.337 4.939 3.412.15.094V280a24.415 24.415 0 0 0 .077 6.4v.178l-.141.112-4.868 3.51.094-.356 3.908 9.138-.337-.178 5.9-1.078h.187l.112.141a24.042 24.042 0 0 0 4.564 4.471c.056.131-.112-.291.122.3v.281l-.066.375-.112.74-.244 1.49c-.159.984-.319 1.978-.478 2.952l-.187-.328 9.223 3.7-.366.112 3.412-4.939.1-.15h.187a23.524 23.524 0 0 0 6.392-.066h.178l.1.141 3.515 4.874-.347-.1 9.138-3.89-.169.309q-.534-3.009-1.068-5.9v-.169l.131-.094a24.368 24.368 0 0 0 4.489-4.574l.094-.131h.159l5.923.937-.281.15 3.749-9.2.084.281L134.58 286l-.112-.075v-.125a24.368 24.368 0 0 0-.056-6.42v-.122l.1-.066 4.874-3.505-.056.216c-1.5-3.543-2.812-6.561-3.861-9.148l.15.075-5.914 1.04h-.056v-.047a24.7 24.7 0 0 0-3.327-3.543l-.937-.787c-.216-.169-.309-.253-.3-.262l.328.225c.216.159.544.4.937.74a24.49 24.49 0 0 1 3.421 3.505h-.1l5.9-1.125h.1v.1l3.936 9.119.056.131-.112.084-4.855 3.533.084-.187a24.415 24.415 0 0 1 .084 6.561l-.094-.206 4.949 3.4.159.1-.075.169c-1.162 2.924-2.39 5.98-3.683 9.232l-.075.187h-.206l-5.923-.937.253-.1a24.567 24.567 0 0 1-4.574 4.686l.1-.272q.534 2.915 1.078 5.9v.225l-.253.047-9.138 3.908-.206.094-.141-.187-3.524-4.864.281.122a24.706 24.706 0 0 1-6.561.075l.281-.131q-1.687 2.446-3.412 4.939l-.131.206-.225-.094-9.223-3.7-.225-.084v-.244l.478-2.952.234-1.49.122-.74.056-.375v-.356c.234.581.066.159.112.291a24.136 24.136 0 0 1-4.686-4.583l.291.112-5.9 1.078-.244.047-.094-.225c-1.34-3.14-2.662-6.242-3.89-9.138l-.094-.225.187-.141 4.874-3.515-.122.291a24.884 24.884 0 0 1-.066-6.561l.122.281-4.93-3.421-.187-.131.084-.206c1.284-3.205 2.54-6.326 3.749-9.213l.084-.206h.224l5.923.937-.253.1a24.638 24.638 0 0 1 4.583-4.686l-.094.244c-.375-2.062-.731-4.077-1.068-5.9v-.187l.178-.075 9.138-3.88.159-.066.1.141 3.505 4.874-.187-.084a24.573 24.573 0 0 1 6.561-.047l-.169.075 3.43-4.921.075-.1.112.047 9.194 3.749h.075v.075l-.759 4.386c-.084.478-.159.853-.206 1.134a2.24 2.24 0 0 1-.037.478z" class="cls-5"/>
                    <path id="Path_1575" d="M203.327 313.117a42.494 42.494 0 0 1 8.1 7.939l10.31-1.875 6.833 16.008-8.529 6.167a42.56 42.56 0 0 1 .131 11.35l8.651 5.98-6.5 16.149-10.385-1.668a42.279 42.279 0 0 1-7.938 8.106l1.874 10.31-16.008 6.833-6.111-8.52a42.964 42.964 0 0 1-11.35.122l-5.97 8.651-16.158-6.486 1.668-10.385a42.6 42.6 0 0 1-8.107-7.948l-10.357 1.875-6.823-16.008 8.52-6.167a42.973 42.973 0 0 1-.122-11.35l-8.651-5.98 6.486-16.149 10.385 1.668a42.6 42.6 0 0 1 7.948-8.107l-1.874-10.357 16.008-6.833 6.167 8.529a42.578 42.578 0 0 1 11.35-.122l5.98-8.651 16.13 6.533zm-18 17.32a18.679 18.679 0 1 0 10.373 24.294 18.679 18.679 0 0 0-10.366-24.294z" class="cls-4"/>
                </g>
                <g id="freepik--JavaScript--inject-4" transform="translate(237.068 -28.437)">
                    <path id="Path_1576" fill="#ebebeb" d="M240.268 256.847H89.648V69.525l115.217.337 35.4 38.452z" transform="translate(4.395)"/>
                    <path id="Path_1580" d="M176.087 69.788l-.137 31.379a8.073 8.073 0 0 0 8.31 8.1l27.242-1.012z" class="cls-5" transform="translate(33.161 .087)"/>
                    <path id="Rectangle_5224" d="M0 0H66.793V40.601H0z" class="cls-7" transform="translate(76.461 196.414)"/>
                    <path id="Path_1581" d="M90.7 190.683l1.737-2.012a5.236 5.236 0 0 0 4.374 2.5c2.362 0 3.586-1.437 3.586-4.261v-11.772h-7.575v-2.6h10.547v14.221c0 4.674-2.274 6.986-6.561 6.986a7.335 7.335 0 0 1-6.111-3.062z" class="cls-8" transform="translate(4.745 34.335)"/>
                    <path id="Path_1582" d="M103.341 191.143l1.112-2.337a10.747 10.747 0 0 0 6.911 2.424c3.636 0 5.186-1.412 5.186-3.237 0-5.124-12.7-1.887-12.7-9.672 0-3.237 2.5-6 8.023-6a12.346 12.346 0 0 1 6.748 1.862l-1 2.4a10.747 10.747 0 0 0-5.748-1.712c-3.561 0-5.086 1.5-5.086 3.324 0 5.124 12.7 1.924 12.7 9.622 0 3.2-2.574 5.961-8.123 5.961a12.5 12.5 0 0 1-8.023-2.635z" class="cls-8" transform="translate(8.959 34.263)"/>
                    <g id="Group_900" transform="translate(150.719 106.968)">
                        <path id="Path_1911" d="M8.645 12.648l2.536 40.181a6.512 6.512 0 0 0 6.11 6.083 6.512 6.512 0 0 0 6.858-5.792L28.6 12.8a5.1 5.1 0 0 0-5.085-5.722l-9.782.139a5.113 5.113 0 0 0-5.085 5.431z" class="cls-7"/>
                        <path id="Path_1912" d="M27.742 23.568a9.8 9.8 0 1 1-.543-7.483 9.8 9.8 0 0 1 .543 7.483z" class="cls-7" transform="translate(.189 57.858)"/>
                    </g>
                </g>
                <g id="freepik--Device--inject-4">
                    <path id="Path_1631" d="M189.446 220.694h278.786a6.317 6.317 0 0 1 6.317 6.317V400.4a13.656 13.656 0 0 1-13.656 13.656H195.838a13.656 13.656 0 0 1-13.655-13.656V227.949a7.264 7.264 0 0 1 7.264-7.254z" class="cls-9"/>
                    <path id="Path_1632" d="M169.961 399.737h316.791v4.063a12.859 12.859 0 0 1-12.859 12.859H182.82a12.859 12.859 0 0 1-12.859-12.859z" class="cls-9"/>
                    <path id="Rectangle_5226" d="M0 0H275.852V163.269H0z" class="cls-5" transform="translate(190.028 228.38)"/>
                    <path id="Path_1633" d="M299.545 399.737l3.927 6.251h55.307l3.655-6.251z" class="cls-10"/>
                    <path id="Rectangle_5227" d="M0 0H292.366V0.928H0z" class="cls-10" transform="translate(182.23 399.672)"/>
                    <path id="Rectangle_5228" d="M0 0H260.143V153.812H0z" class="cls-10" transform="translate(198.219 237.837)"/>
                    <path id="Path_1634" d="M218.173 387.131c-.131 0-.244-32.757-.244-73.162s.112-73.162.244-73.162.206 32.748.206 73.171-.079 73.153-.206 73.153z" class="cls-5"/>
                    <path id="Path_1635" d="M212.925 254.07a18.145 18.145 0 0 1-4.227.244 18.145 18.145 0 0 1-4.227-.244 36.786 36.786 0 0 1 8.435 0z" class="cls-5"/>
                    <path id="Path_1636" d="M213.253 245.766a18.146 18.146 0 0 1-4.227.244 18.146 18.146 0 0 1-4.227-.244 36.786 36.786 0 0 1 8.435 0z" class="cls-5"/>
                    <path id="Path_1637" d="M212.925 263.021a36.786 36.786 0 0 1-8.435 0 36.79 36.79 0 0 1 8.435 0z" class="cls-5"/>
                    <path id="Path_1638" d="M212.925 271.971a36.788 36.788 0 0 1-8.435 0 18.146 18.146 0 0 1 4.227-.244 18.148 18.148 0 0 1 4.208.244z" class="cls-5"/>
                    <path id="Path_1639" d="M212.925 280.922a36.785 36.785 0 0 1-8.435 0 18.146 18.146 0 0 1 4.227-.244 18.146 18.146 0 0 1 4.208.244z" class="cls-5"/>
                    <path id="Path_1640" d="M212.925 289.873a36.788 36.788 0 0 1-8.435 0 18.144 18.144 0 0 1 4.227-.244 18.144 18.144 0 0 1 4.208.244z" class="cls-5"/>
                    <path id="Path_1641" d="M212.925 298.814a17.808 17.808 0 0 1-4.227.253 17.808 17.808 0 0 1-4.227-.253 36.786 36.786 0 0 1 8.435 0z" class="cls-5"/>
                    <path id="Path_1642" d="M212.925 307.765a18.144 18.144 0 0 1-4.227.244 18.145 18.145 0 0 1-4.227-.244 36.791 36.791 0 0 1 8.435 0z" class="cls-5"/>
                    <path id="Path_1643" d="M212.925 316.716a18.146 18.146 0 0 1-4.227.244 18.146 18.146 0 0 1-4.227-.244 36.786 36.786 0 0 1 8.435 0z" class="cls-5"/>
                    <path id="Path_1644" d="M212.925 325.666a18.146 18.146 0 0 1-4.227.244 18.147 18.147 0 0 1-4.227-.244 36.79 36.79 0 0 1 8.435 0z" class="cls-5"/>
                    <path id="Path_1645" d="M212.925 334.6a36.788 36.788 0 0 1-8.435 0 36.786 36.786 0 0 1 8.435 0z" class="cls-5"/>
                    <path id="Path_1646" d="M212.925 343.568a36.786 36.786 0 0 1-8.435 0 18.146 18.146 0 0 1 4.227-.244 18.144 18.144 0 0 1 4.208.244z" class="cls-5"/>
                    <path id="Path_1647" d="M212.925 352.519a36.79 36.79 0 0 1-8.435 0 18.146 18.146 0 0 1 4.227-.244 18.144 18.144 0 0 1 4.208.244z" class="cls-5"/>
                    <path id="Path_1648" d="M212.925 361.469a36.785 36.785 0 0 1-8.435 0 18.146 18.146 0 0 1 4.227-.244 18.144 18.144 0 0 1 4.208.244z" class="cls-5"/>
                    <path id="Path_1649" d="M212.925 370.42a36.788 36.788 0 0 1-8.435 0 17.8 17.8 0 0 1 4.227-.253 17.807 17.807 0 0 1 4.208.253z" class="cls-5"/>
                    <path id="Path_1650" d="M212.925 379.361a18.147 18.147 0 0 1-4.227.244 18.147 18.147 0 0 1-4.227-.244 36.786 36.786 0 0 1 8.435 0z" class="cls-5"/>
                    <path id="Path_1651" d="M246.806 253.545c0 .131-4.911.244-10.966.244s-10.975-.112-10.975-.244 4.911-.244 10.975-.244 10.966.099 10.966.244z" class="cls-7"/>
                    <path id="Path_1652" d="M246.806 379.361c0 .141-4.911.244-10.966.244s-10.975-.1-10.975-.244 4.911-.244 10.975-.244 10.966.113 10.966.244z" class="cls-7"/>
                    <path id="Path_1653" d="M277.351 271.971c0 .131-9.194.244-20.526.244s-20.516-.112-20.516-.244 9.185-.244 20.516-.244 20.526.073 20.526.244z" class="cls-7"/>
                    <path id="Path_1654" d="M324.8 271.971c0 .131-9.194.244-20.526.244s-20.516-.112-20.516-.244 9.185-.244 20.516-.244 20.526.073 20.526.244z" class="cls-5"/>
                    <path id="Path_1655" d="M306.668 280.922c0 .131-13.543.244-30.245.244s-30.236-.112-30.236-.244 13.534-.244 30.236-.244 30.245.103 30.245.244z" class="cls-5"/>
                    <path id="Path_1656" d="M306.668 289.873c0 .131-13.543.244-30.245.244s-30.236-.112-30.236-.244 13.534-.244 30.236-.244 30.245.103 30.245.244z" class="cls-5"/>
                    <path id="Path_1657" d="M348.292 316.716c0 .141-13.534.244-30.236.244s-30.245-.1-30.245-.244 13.543-.244 30.245-.244 30.236.112 30.236.244z" class="cls-5"/>
                    <path id="Path_1658" d="M330.334 298.814c0 .141-13.543.253-30.245.253s-30.236-.112-30.236-.253 13.534-.244 30.236-.244 30.245.113 30.245.244z" class="cls-5"/>
                    <path id="Path_1659" d="M404.236 298.814c0 .141-13.543.253-30.236.253s-30.245-.112-30.245-.253 13.545-.244 30.245-.244 30.236.113 30.236.244z" class="cls-5"/>
                    <path id="Path_1660" d="M378.537 280.922c0 .131-13.543.244-30.245.244s-30.236-.112-30.236-.244 13.534-.244 30.236-.244 30.245.103 30.245.244z" class="cls-11"/>
                    <path id="Path_1661" d="M420.31 316.716c0 .141-13.543.244-30.236.244s-30.245-.1-30.245-.244 13.543-.244 30.245-.244 30.236.112 30.236.244z" class="cls-11"/>
                    <path id="Path_1662" d="M411.968 289.873c0 .131-21.023.244-46.956.244s-46.956-.112-46.956-.244 21.023-.244 46.956-.244 46.956.103 46.956.244z" class="cls-9"/>
                    <path id="Path_1663" d="M246.806 263.021c0 .131-4.911.244-10.966.244s-10.975-.112-10.975-.244 4.911-.244 10.975-.244 10.966.112 10.966.244z" class="cls-11"/>
                    <path id="Path_1664" d="M246.806 370.42c0 .131-4.911.244-10.966.244s-10.975-.112-10.975-.244 4.911-.253 10.975-.253 10.966.113 10.966.253z" class="cls-11"/>
                    <path id="Path_1665" d="M257.669 298.814c0 .141-4.911.253-10.966.253s-10.966-.112-10.966-.253 4.9-.244 10.966-.244 10.966.113 10.966.244z" class="cls-11"/>
                    <path id="Path_1666" d="M433.46 298.814c0 .141-4.911.253-10.966.253s-10.966-.112-10.966-.253 4.9-.244 10.966-.244 10.966.113 10.966.244z" class="cls-7"/>
                    <path id="Path_1667" d="M277.351 334.6c0 .141-9.194.244-20.526.244s-20.516-.1-20.516-.244 9.185-.244 20.516-.244 20.526.074 20.526.244z" class="cls-7"/>
                    <path id="Path_1668" d="M324.8 334.6c0 .141-9.194.244-20.526.244s-20.516-.1-20.516-.244 9.185-.244 20.516-.244 20.526.074 20.526.244z" class="cls-5"/>
                    <path id="Path_1669" d="M306.668 343.512c0 .141-13.543.244-30.245.244s-30.236-.1-30.236-.244 13.534-.244 30.236-.244 30.245.112 30.245.244z" class="cls-5"/>
                    <path id="Path_1670" d="M306.668 352.462c0 .141-13.543.244-30.245.244s-30.236-.1-30.236-.244 13.534-.244 30.236-.244 30.245.113 30.245.244z" class="cls-5"/>
                    <path id="Path_1671" d="M330.334 361.413c0 .131-13.543.244-30.245.244s-30.236-.112-30.236-.244 13.534-.244 30.236-.244 30.245.113 30.245.244z" class="cls-5"/>
                    <path id="Path_1672" d="M404.236 361.413c0 .131-13.543.244-30.236.244s-30.245-.112-30.245-.244 13.543-.244 30.245-.244 30.236.113 30.236.244z" class="cls-5"/>
                    <path id="Path_1673" d="M378.537 343.512c0 .141-13.543.244-30.245.244s-30.236-.1-30.236-.244 13.534-.244 30.236-.244 30.245.112 30.245.244z" class="cls-11"/>
                    <path id="Path_1674" d="M411.968 352.462c0 .141-21.023.244-46.956.244s-46.956-.1-46.956-.244 21.023-.244 46.956-.244 46.956.113 46.956.244z" class="cls-9"/>
                    <path id="Path_1675" d="M257.669 361.413c0 .131-4.911.244-10.966.244s-10.966-.112-10.966-.244 4.9-.244 10.966-.244 10.966.113 10.966.244z" class="cls-11"/>
                    <path id="Path_1676" d="M433.46 361.413c0 .131-4.911.244-10.966.244s-10.966-.112-10.966-.244 4.9-.244 10.966-.244 10.966.113 10.966.244z" class="cls-7"/>
                </g>
                <g id="freepik--Floor--inject-4" class="cls-2">
                    <path id="Path_1677" d="M656.469 416.664c0 .131-136.567.244-304.981.244s-305.019-.112-305.019-.244 136.539-.244 305.019-.244 304.981.103 304.981.244z" class="cls-10"/>
                </g>
                <g id="freepik--character-1--inject-4">
                    <path id="Path_1720" d="M265.242 222.025c15.643-5.68 7.61-29.27 7.61-29.27l-79.385 7.273a11.191 11.191 0 0 0-11.247 11.191 11.191 11.191 0 0 0 11.191 11.191l71.85-.384" class="cls-10"/>
                    <path id="Path_1721" d="M163.016 287.352l-.159-7.873 15.1-5.37.628 10.966-.853.412c-3.749 1.79-19.4 8.838-22.316 9.11-3.253.29 7.6-7.245 7.6-7.245z" class="cls-7"/>
                    <g id="Group_890" opacity="0.4">
                        <path id="Path_1722" d="M157.8 291.241s-3.693 2.905-2.887 3.383 16.871-6.055 23.675-9.551l-.15-.309-18.651 7.779s-1.157-1.602-1.987-1.302z" class="cls-8"/>
                    </g>
                    <path id="Path_1723" d="M178.649 284.671l-.234.122-.675.328-2.474 1.143c-2.128.937-5.08 2.24-8.37 3.58s-6.308 2.5-8.491 3.3l-2.6.937-.712.244-.253.066.244-.1.694-.272 2.577-.993c2.174-.834 5.174-2 8.435-3.346s6.251-2.606 8.435-3.524l2.531-1.1.684-.291a1.05 1.05 0 0 1 .206-.094z" class="cls-10"/>
                    <path id="Path_1724" d="M159.876 292.76a7.274 7.274 0 0 0-.937-1.022 6.438 6.438 0 0 0-1.275-.628 2.484 2.484 0 0 1 2.249 1.65z" class="cls-10"/>
                    <path id="Path_1725" d="M163.166 288.973a3.363 3.363 0 0 1-.665-.356c-.337-.234-.59-.469-.553-.515s.319.122.656.366.59.458.562.505z" class="cls-10"/>
                    <path id="Path_1726" d="M164.019 287.9c0 .047-.3 0-.628-.131s-.59-.253-.572-.3.3 0 .628.131.628.258.572.3z" class="cls-10"/>
                    <path id="Path_1727" d="M164.234 286.283a1.964 1.964 0 0 1-.694.394 1.874 1.874 0 0 1-.769.225 1.964 1.964 0 0 1 .694-.394 1.875 1.875 0 0 1 .769-.225z" class="cls-10"/>
                    <path id="Path_1728" d="M164.1 285.252a1.621 1.621 0 0 1-.722.572 1.481 1.481 0 0 1-.89.225 5.381 5.381 0 0 1 .806-.394 4.961 4.961 0 0 1 .806-.403z" class="cls-10"/>
                    <path id="Path_1729" d="M162.144 287.942a2.812 2.812 0 0 1-.937.356 5.077 5.077 0 0 1-1.05.178 2.893 2.893 0 0 1-.637 0 .516.516 0 0 1-.347-.187.422.422 0 0 1 0-.422 1.8 1.8 0 0 1 2.249-.347 1.781 1.781 0 0 1 .544.487c.094.141.131.225.122.234a2.578 2.578 0 0 0-.731-.609 1.753 1.753 0 0 0-.937-.187 1.509 1.509 0 0 0-1.04.515c-.1.169 0 .309.216.337a2.557 2.557 0 0 0 .6 0 7.319 7.319 0 0 0 1.031-.131c.599-.111.917-.252.917-.224z" class="cls-10"/>
                    <path id="Path_1730" d="M161.966 288.083a1.022 1.022 0 0 1-.356-.59 1.565 1.565 0 0 1 0-.759.937.937 0 0 1 .562-.769.394.394 0 0 1 .45.309 1.135 1.135 0 0 1 0 .469 3.225 3.225 0 0 1-.206.712 1.434 1.434 0 0 1-.365.581 5.951 5.951 0 0 0 .244-.628 3.038 3.038 0 0 0 .159-.694c.047-.244 0-.619-.253-.562s-.375.384-.441.619a1.584 1.584 0 0 0 0 .694 3.747 3.747 0 0 0 .206.618z" class="cls-10"/>
                    <path id="Path_1731" d="M176.794 280.941a5.675 5.675 0 0 0-1.022.459 4.752 4.752 0 0 0-2.484 4.433 5.97 5.97 0 0 0 .141 1.115 1.264 1.264 0 0 1-.122-.291 3.99 3.99 0 0 1-.15-.815 4.592 4.592 0 0 1 2.559-4.555 3.546 3.546 0 0 1 .778-.3.938.938 0 0 1 .3-.047z" class="cls-10"/>
                    <path id="Path_1732" d="M172.96 275.683a26.613 26.613 0 0 1 1.293 2.812 24.858 24.858 0 0 1 1.125 2.905 25.9 25.9 0 0 1-1.293-2.812 27.608 27.608 0 0 1-1.125-2.905z" class="cls-10"/>
                    <path id="Path_1733" d="M171.114 286.386a9.222 9.222 0 0 1-1.968 1.04 8.836 8.836 0 0 1-2.128.665c0-.047.937-.366 2.053-.844s2.015-.908 2.043-.861z" class="cls-10"/>
                    <path id="Path_1734" d="M173.869 285.262c.047 0 0 .225 0 .469v.478a.711.711 0 0 1-.159-.487c.009-.292.112-.489.159-.46z" class="cls-10"/>
                    <path id="Path_1735" d="M174.375 283.546a1.493 1.493 0 0 1-.066.4c-.066.206-.2.366-.244.347s0-.206.075-.412.189-.353.235-.335z" class="cls-10"/>
                    <path id="Path_1736" d="M175.622 282.347c0 .056-.178.131-.356.281s-.281.328-.328.309 0-.253.206-.441.478-.196.478-.149z" class="cls-10"/>
                    <path id="Path_1737" d="M176.569 281.644a.319.319 0 0 1-.122.234c-.122.094-.206.131-.234.094s0-.141.112-.234.206-.132.244-.094z" class="cls-10"/>
                    <path id="Path_1738" d="M223.619 198.96l-44.332.834a14.227 14.227 0 0 0-13.862 12.494l-8.791 71.447h24.078l7.348-61.709h35.006z" class="cls-10"/>
                    <path id="Path_1739" d="M156.933 279.188c0 .112 5.277.244 11.781.281s11.669-.122 11.781-.131c.75-.075-5.277-.244-11.781-.281s-11.781.019-11.781.131z" class="cls-9"/>
                    <path id="Path_1740" d="M248.006 196.71h-.872l-2.512.112-9.166.431-30.2 1.556c-1.481.066-2.934.187-4.368.206s-2.868.084-4.264.159-2.756.178-4.1.319a15.053 15.053 0 0 0-3.9.759 9.439 9.439 0 0 0-3.234 1.959 8.107 8.107 0 0 0-1.968 2.99 14.339 14.339 0 0 0-.8 3.224 20.455 20.455 0 0 0-.216 3.055 12.3 12.3 0 0 0 1.031 5.136 8.351 8.351 0 0 0 2.418 3.13 6.748 6.748 0 0 0 2.2 1.181c.553.159.562.112 0-.075a7.086 7.086 0 0 1-2.137-1.228 8.435 8.435 0 0 1-2.315-3.093 12.269 12.269 0 0 1-.937-5.052 21.25 21.25 0 0 1 .234-3.009 14.545 14.545 0 0 1 .806-3.149 7.826 7.826 0 0 1 1.875-2.812 9.194 9.194 0 0 1 3.13-1.875 15.558 15.558 0 0 1 3.805-.722c1.331-.131 2.7-.225 4.086-.3s2.812-.131 4.236-.15 2.9-.141 4.377-.206l30.226-1.687 9.166-.562 2.484-.169.647-.056a.7.7 0 0 0 .253-.075z" class="cls-9"/>
                    <path id="Path_1741" d="M233.881 167.074l-3.852 12.072a13.937 13.937 0 0 1-10.825 9.7l-22.382 6.2-1.743-4.143-1.631-6.12 19.364-6.561a5.183 5.183 0 0 0 3.908-3.749l7.714-16.777 9.766 5.989z" class="cls-13"/>
                    <path id="Path_1742" d="M243.273 129.341c-8.2.937-10.844 4.293-14.19 9.138a27.423 27.423 0 0 0-3.318 6.5l-6.214 17.6 12.962 4-.431 14.312-5.9 17.5 49.8 3.918-.141-25.428-.356-15.343c.469-5.811 1.678-18.126.647-21.051-4.433-12.494-14.209-10.094-21.379-11.875a48.288 48.288 0 0 0-9.879 0" class="cls-7"/>
                    <path id="Path_1743" d="M275.973 175.266c0 .131-9.738.244-21.754.244s-21.782-.084-21.782-.244 9.738-.244 21.754-.244 21.782.131 21.782.244z" class="cls-11"/>
                    <path id="Path_1744" d="M275.242 183.982c0 .141-9.738.244-21.754.244s-21.754-.1-21.754-.244 9.738-.244 21.754-.244 21.754.113 21.754.244z" class="cls-11"/>
                    <path id="Path_1745" d="M275.477 193.955c0 .141-10.31.244-23 .244s-23.01-.1-23.01-.244 10.31-.244 23.01-.244 23 .112 23 .244z" class="cls-11"/>
                    <g id="Group_891" opacity="0.3">
                        <path id="Path_1746" d="M269.431 169.736c-.647 3.365-.937 7-2.081 10.235a24.781 24.781 0 0 1-3.327 6.776 16.758 16.758 0 0 1-8.435 5.623c-3.29 1.022-19.1 4.555-22.494 4.293l28.924-13.693 3.487-14.4z"/>
                    </g>
                    <path id="Path_1747" d="M267.744 169.23l-3.177 12.24a14.059 14.059 0 0 1-10.4 10.31l-25.531 5.98-7.02.075v-9.663l25.7-6.945a5.23 5.23 0 0 0 3.749-3.918l2.474-10.769z" class="cls-13"/>
                    <path id="Path_1748" d="M276.226 139.772c0 .131-10.732.244-23.975.244s-23.975-.112-23.975-.244 10.732-.244 23.975-.244 23.975.122 23.975.244z" class="cls-11"/>
                    <path id="Path_1749" d="M276.489 148.086c0 .141-11.566.244-25.84.244s-25.84-.1-25.84-.244 11.566-.244 25.84-.244 25.84.094 25.84.244z" class="cls-11"/>
                    <path id="Path_1750" d="M275.861 157.036c0 .141-12.184.347-27.18.459s-27.18.1-27.18 0 12.184-.337 27.18-.459 27.171-.131 27.18 0z" class="cls-11"/>
                    <path id="Path_1751" d="M275.477 166.54c0 .131-9.738.244-21.754.244s-21.754-.112-21.754-.244 9.738-.244 21.754-.244 21.754.113 21.754.244z" class="cls-11"/>
                    <path id="Path_1752" d="M272.121 170.252a.5.5 0 0 1 0-.206l.084-.59c.084-.553.206-1.312.347-2.268.309-1.987.759-4.864 1.256-8.435s1.068-7.939 1.359-12.831c.094-2.427.3-5.108-.937-7.5a7.948 7.948 0 0 0-2.634-2.98 9.372 9.372 0 0 0-3.852-1.49h-.056a7.967 7.967 0 0 0-4.742.328 13.505 13.505 0 0 0-4.386 2.381 3.42 3.42 0 0 0-.675.759 9.54 9.54 0 0 0-.5.937 14.538 14.538 0 0 0-.722 1.968 38.424 38.424 0 0 0-.862 4.077c-.487 2.709-.937 5.352-1.415 7.892-.937 5.08-1.753 9.766-2.5 13.918l-.141-.216 14.434 3.027 3.965.881 1.04.244a1.772 1.772 0 0 1 .347.1l-.366-.047-1.04-.187-3.993-.778-14.471-2.924h-.169v-.187c.731-4.152 1.546-8.848 2.437-13.937.45-2.54.937-5.183 1.4-7.9a36.611 36.611 0 0 1 .872-4.115 13.676 13.676 0 0 1 .74-2.043q.239-.481.525-.937a4.182 4.182 0 0 1 .759-.862 14.059 14.059 0 0 1 4.564-2.484 8.435 8.435 0 0 1 5.042-.309h-.047a9.813 9.813 0 0 1 4.068 1.584 8.436 8.436 0 0 1 2.812 3.159 10 10 0 0 1 .731 1.921 11.988 11.988 0 0 1 .291 1.978l.056.937v.937c0 .637-.047 1.256-.084 1.875-.319 4.921-.937 9.251-1.462 12.859s-1.04 6.476-1.4 8.435c-.178.937-.328 1.706-.431 2.259l-.122.581a1.178 1.178 0 0 1-.122.187z" class="cls-10"/>
                    <path id="Path_1753" d="M232.372 180.692a8.539 8.539 0 0 0 .066-1.3v-3.562c0-3 0-7.142-.084-11.725s-.122-8.726-.2-11.725c-.047-1.453-.084-2.643-.112-3.562a8.7 8.7 0 0 0-.094-1.3 7.226 7.226 0 0 0-.066 1.3v3.562c0 3 0 7.151.084 11.725s.131 8.735.206 11.734c0 1.443.084 2.643.112 3.552a7.218 7.218 0 0 0 .084 1.3z" class="cls-10"/>
                    <path id="Path_1754" d="M248.006 199.9l.441-2.09-19.335-2.062-8.435-24.228-39.383-.272 12.906 28.1z" class="cls-9"/>
                    <path id="Path_1755" d="M206.532 186.738a1.94 1.94 0 1 0-1.465.256 1.94 1.94 0 0 0 1.465-.256" class="cls-8"/>
                    <path id="Path_1756" d="M233.375 89.423a5.23 5.23 0 0 0-1.875 9.654 2.812 2.812 0 0 0 2.634.3 3.234 3.234 0 0 0 1.425-2.062 11.041 11.041 0 0 0-.628-8.051" class="cls-10"/>
                    <path id="Path_1757" d="M249.58 137.26a8.435 8.435 0 0 1-8.435-8.5c0-2.915.075-5.445.075-5.445s-6.748-.628-7.245-7.311-.281-22.11-.281-22.11a23.319 23.319 0 0 1 23.534 1.5l1.031.7-.319 32.8a8.435 8.435 0 0 1-8.36 8.366z" class="cls-13"/>
                    <path id="Path_1758" d="M241.239 123.22a15.549 15.549 0 0 0 8.567-3.018s-1.762 4.939-8.435 4.752z" class="cls-15"/>
                    <path id="Path_1759" d="M256.572 103.482c.131 0 4.236-.581 3.843 4.274s-5.155 2.812-5.155 2.709 1.312-6.983 1.312-6.983z" class="cls-13"/>
                    <path id="Path_1760" d="M256.882 108.88a2.48 2.48 0 0 0 .225.15.834.834 0 0 0 .628.056 2.081 2.081 0 0 0 1.115-1.79 2.812 2.812 0 0 0-.141-1.237.937.937 0 0 0-.581-.694.422.422 0 0 0-.516.187c-.075.131-.056.234-.084.244s-.094-.094 0-.291a.553.553 0 0 1 .216-.291.628.628 0 0 1 .478-.084 1.181 1.181 0 0 1 .815.825 2.737 2.737 0 0 1 .187 1.368 2.2 2.2 0 0 1-1.4 2 .937.937 0 0 1-.769-.187c-.173-.136-.192-.246-.173-.256z" class="cls-15"/>
                    <path id="Path_1761" d="M238.343 96.659a19.075 19.075 0 0 0 3.149-2.278 5.108 5.108 0 0 0 7.864.937 2.624 2.624 0 0 0 1.322 2.109 2.6 2.6 0 0 0 2.484 0l.1 7.732a3.533 3.533 0 0 0 .487 2.137 1.228 1.228 0 0 0 1.874.159 5.352 5.352 0 0 1 .262-2.812 1.874 1.874 0 0 1 2.334-1.04 19.214 19.214 0 0 0 .272-4.574 4.058 4.058 0 0 1 .187-1.4c.262-.431.384-.1.881-.206a3.458 3.458 0 0 0 2.606-3.121 4.358 4.358 0 0 0-1.875-3.749 5.97 5.97 0 0 0-4.143-.993 2.634 2.634 0 0 0 0-3.524 4.3 4.3 0 0 0-3.524-1.293c-1.3.084-2.765.806-2.924 2.09a5.342 5.342 0 0 0-10.553-.291c-1.556-.694-3.749-1.453-5.286-.75a5.108 5.108 0 0 0-3.215 4.452s-.394 5.3 2.971 6.373 4.727.042 4.727.042z" class="cls-10"/>
                    <path id="Path_1762" d="M235.494 104.6a.94.94 0 1 0 .937-.844.937.937 0 0 0-.937.844z" class="cls-10"/>
                    <path id="Path_1763" d="M235.25 103.538c.112.122.825-.4 1.874-.394s1.743.506 1.874.384-.066-.281-.384-.515a2.606 2.606 0 0 0-1.49-.459 2.484 2.484 0 0 0-1.462.478.909.909 0 0 0-.412.506z" class="cls-10"/>
                    <path id="Path_1764" d="M245.372 104.831a.94.94 0 1 0 .937-.844.937.937 0 0 0-.937.844z" class="cls-10"/>
                    <path id="Path_1765" d="M245.2 103.725c.112.131.825-.4 1.874-.394s1.743.506 1.874.384-.066-.281-.384-.515a2.606 2.606 0 0 0-1.49-.459 2.484 2.484 0 0 0-1.462.478c-.362.235-.465.46-.412.506z" class="cls-10"/>
                    <path id="Path_1766" d="M241.539 111.214a6.561 6.561 0 0 0-1.631-.3c-.262 0-.506-.075-.553-.253a1.293 1.293 0 0 1 .178-.759l.759-1.968a34.143 34.143 0 0 0 1.715-5.127 33.536 33.536 0 0 0-2.128 4.977c-.253.694-.5 1.35-.722 1.978a1.462 1.462 0 0 0-.141 1.012.684.684 0 0 0 .422.375 1.612 1.612 0 0 0 .44.056 6.8 6.8 0 0 0 1.659.009z" class="cls-10"/>
                    <path id="Path_1767" d="M244.51 111.908c-.159 0-.169 1.087-1.106 1.874s-2.1.656-2.109.806.262.216.75.225a2.681 2.681 0 0 0 1.762-.609 2.4 2.4 0 0 0 .862-1.565c.038-.469-.047-.739-.159-.731z" class="cls-10"/>
                    <path id="Path_1768" d="M244.941 99.78c.1.272 1.106.141 2.287.281s2.146.469 2.306.225-.1-.375-.487-.647a3.833 3.833 0 0 0-1.706-.59 3.749 3.749 0 0 0-1.79.206c-.432.178-.651.393-.61.525z" class="cls-10"/>
                    <path id="Path_1769" d="M235.662 100.623c.178.225.872 0 1.706 0s1.537.15 1.706-.084 0-.347-.347-.562a2.484 2.484 0 0 0-2.756.084c-.29.225-.393.45-.309.562z" class="cls-10"/>
                    <path id="Path_1770" d="M237.574 89.1a.729.729 0 0 1-.262-.075.862.862 0 0 0-.694.178.937.937 0 0 0-.309 1.012 1.649 1.649 0 0 0 1 1.1 2.146 2.146 0 0 0 1.8-.112 2.231 2.231 0 0 0 1.091-1.733 2.493 2.493 0 0 0-.844-2.118 2.962 2.962 0 0 0-2.362-.759 3.852 3.852 0 0 0-2.3 1.143 4.293 4.293 0 0 0-1.1 2.146 5.8 5.8 0 0 0 .684 4.077 6.758 6.758 0 0 0 1.874 2.137c.553.394.937.562.937.6a3.055 3.055 0 0 1-.993-.441 6.392 6.392 0 0 1-2.109-2.118 6.073 6.073 0 0 1-.825-4.339 4.686 4.686 0 0 1 1.2-2.4 4.218 4.218 0 0 1 2.577-1.284 3.44 3.44 0 0 1 2.746.881 2.943 2.943 0 0 1 .937 2.521 2.634 2.634 0 0 1-1.34 2.043 2.521 2.521 0 0 1-2.137.075 1.875 1.875 0 0 1-1.125-1.35 1.153 1.153 0 0 1 .469-1.237.937.937 0 0 1 .825-.122c.213.114.27.175.26.175z" class="cls-9"/>
                </g>
            </g>
        </g>
    </g>
</svg>
