<svg xmlns="http://www.w3.org/2000/svg" width="130" height="130" viewBox="0 0 130 130">
    <rect width="130" height="130" fill="#21d97d" opacity="0.1" rx="4"/>
    <g>
        <g>
            <path fill="#21d97d" d="M64.383 70.869a3.884 3.884 0 0 1-5.48 0l-8.24-8.2a3.838 3.838 0 0 1 0-5.453 3.884 3.884 0 0 1 5.48 0l5.48 5.453 13.76-13.69a3.884 3.884 0 0 1 5.48 0 3.838 3.838 0 0 1 0 5.453zm-23.2-4.989H9.774A7.777 7.777 0 0 1 2 58.145v-46.41A7.777 7.777 0 0 1 9.774 4h62.188a7.777 7.777 0 0 1 7.774 7.735V37.57a27.2 27.2 0 0 0-38.868 24.442 25.533 25.533 0 0 0 .311 3.868zm-2.375-28.349a3.948 3.948 0 0 0 4.12 0l27.48-17.094a3.288 3.288 0 1 0-3.5-5.569l-26.042 16.2-26.042-16.2a3.288 3.288 0 1 0-3.5 5.569z" transform="translate(23 27) translate(2 4) translate(-2 -4)"/>
        </g>
    </g>
</svg>
